<?xml version="1.0" standalone="no"?>
<!DOCTYPE svg PUBLIC "-//W3C//DTD SVG 20010904//EN"
 "http://www.w3.org/TR/2001/REC-SVG-20010904/DTD/svg10.dtd">
<svg version="1.0" xmlns="http://www.w3.org/2000/svg"
 width="300.000000pt" height="300.000000pt" viewBox="0 0 300.000000 300.000000"
 preserveAspectRatio="xMidYMid meet">
<metadata>
Created by potrace 1.14, written by Peter Selinger 2001-2017
</metadata>
<g transform="translate(0.000000,300.000000) scale(0.100000,-0.100000)"
fill="#000000" stroke="none">
<path d="M0 1500 l0 -1500 1500 0 1500 0 0 1500 0 1500 -1500 0 -1500 0 0
-1500z m2093 1016 l97 -105 0 -418 -1 -418 -104 -107 -105 -108 -275 0 -275 0
0 -285 0 -285 81 0 82 0 -6 -68 c-4 -37 -7 -118 -7 -179 l0 -113 -320 0 -320
0 0 180 0 180 75 0 75 0 0 735 0 735 -75 0 -75 0 0 180 0 180 528 0 527 0 98
-104z"/>
<path d="M1430 1985 l0 -275 210 0 210 0 0 275 0 275 -210 0 -210 0 0 -275z"/>
</g>
</svg>
